<?xml version="1.0" encoding="UTF-8" standalone="no"?>
<!-- Created with Inkscape (http://www.inkscape.org/) -->

<svg
   width="210mm"
   height="297mm"
   viewBox="0 0 210 297"
   version="1.1"
   id="svg5"
   inkscape:version="1.1.1 (c3084ef, 2021-09-22)"
   sodipodi:docname="Datafinder Logo color fondo blanco.svg"
   xmlns:inkscape="http://www.inkscape.org/namespaces/inkscape"
   xmlns:sodipodi="http://sodipodi.sourceforge.net/DTD/sodipodi-0.dtd"
   xmlns="http://www.w3.org/2000/svg"
   xmlns:svg="http://www.w3.org/2000/svg">
  <sodipodi:namedview
     id="namedview7"
     pagecolor="#ffffff"
     bordercolor="#666666"
     borderopacity="1.0"
     inkscape:pageshadow="2"
     inkscape:pageopacity="0.0"
     inkscape:pagecheckerboard="0"
     inkscape:document-units="mm"
     showgrid="false"
     inkscape:zoom="0.51847643"
     inkscape:cx="867.92759"
     inkscape:cy="-2697.3261"
     inkscape:window-width="1239"
     inkscape:window-height="785"
     inkscape:window-x="88"
     inkscape:window-y="43"
     inkscape:window-maximized="0"
     inkscape:current-layer="g908" />
  <defs
     id="defs2">
    <clipPath
       clipPathUnits="userSpaceOnUse"
       id="clipPath854">
      <path
         d="M 0,800 H 800 V 0 H 0 Z"
         id="path852" />
    </clipPath>
    <linearGradient
       x1="0"
       y1="0"
       x2="1"
       y2="0"
       gradientUnits="userSpaceOnUse"
       gradientTransform="matrix(476.459,0,0,476.459,-460.2846,835.7863)"
       spreadMethod="pad"
       id="linearGradient872">
      <stop
         style="stop-opacity:1;stop-color:#b4ce4d"
         offset="0"
         id="stop858" />
      <stop
         style="stop-opacity:1;stop-color:#b4ce4d"
         offset="0.02195963"
         id="stop860" />
      <stop
         style="stop-opacity:1;stop-color:#3bb8bc"
         offset="0.3"
         id="stop862" />
      <stop
         style="stop-opacity:1;stop-color:#536db3"
         offset="0.62511565"
         id="stop864" />
      <stop
         style="stop-opacity:1;stop-color:#536db3"
         offset="0.65"
         id="stop866" />
      <stop
         style="stop-opacity:1;stop-color:#536db3"
         offset="0.74292304"
         id="stop868" />
      <stop
         style="stop-opacity:1;stop-color:#9371b0"
         offset="1"
         id="stop870" />
    </linearGradient>
    <linearGradient
       x1="0"
       y1="0"
       x2="1"
       y2="0"
       gradientUnits="userSpaceOnUse"
       gradientTransform="matrix(476.45895,0,0,-476.45895,174.44,449.44946)"
       spreadMethod="pad"
       id="linearGradient902">
      <stop
         style="stop-opacity:1;stop-color:#b4ce4d"
         offset="0"
         id="stop888" />
      <stop
         style="stop-opacity:1;stop-color:#b4ce4d"
         offset="0.02195963"
         id="stop890" />
      <stop
         style="stop-opacity:1;stop-color:#3bb8bc"
         offset="0.3"
         id="stop892" />
      <stop
         style="stop-opacity:1;stop-color:#536db3"
         offset="0.62511565"
         id="stop894" />
      <stop
         style="stop-opacity:1;stop-color:#536db3"
         offset="0.65"
         id="stop896" />
      <stop
         style="stop-opacity:1;stop-color:#536db3"
         offset="0.74292304"
         id="stop898" />
      <stop
         style="stop-opacity:1;stop-color:#9371b0"
         offset="1"
         id="stop900" />
    </linearGradient>
    <clipPath
       clipPathUnits="userSpaceOnUse"
       id="clipPath912">
      <path
         d="M 0,800 H 800 V 0 H 0 Z"
         id="path910" />
    </clipPath>
  </defs>
  <g
     inkscape:label="Layer 1"
     inkscape:groupmode="layer"
     id="layer1">
    <g
       id="g846"
       inkscape:label="Presentacioón"
       transform="matrix(0.35277777,0,0,-0.35277777,88.351149,-524.61428)">
      <g
         id="g848"
         transform="matrix(1.5120777,0,0,1.5120777,-208.44755,3.0915786)">
        <g
           id="g850"
           clip-path="url(#clipPath854)">
          <g
             id="g856"
             transform="translate(634.7246,450.2363)">
            <path
               d="m 0,0 -280.106,-70.975 c -1.581,-0.4 -3.56,0.416 -4.398,1.814 l -34.594,57.655 c -0.839,1.399 -2.316,1.468 -3.283,0.155 l -42.492,-57.679 c -0.967,-1.313 -3.008,-2.406 -4.537,-2.429 -1.528,-0.023 -3.623,0.99 -4.654,2.252 l -38.791,47.491 c -1.032,1.263 -2.704,1.25 -3.715,-0.028 l -32.176,-40.643 c -1.011,-1.278 -2.712,-2.956 -3.779,-3.728 -1.067,-0.773 -2.881,-1.875 -4.032,-2.45 -1.15,-0.576 -2.091,-1.046 -2.091,-1.046"
               style="fill:none;stroke:url(#linearGradient872);stroke-width:7.32;stroke-linecap:butt;stroke-linejoin:miter;stroke-miterlimit:10;stroke-dasharray:none;stroke-opacity:1"
               id="path874" />
          </g>
        </g>
      </g>
      <g
         id="g876"
         transform="matrix(1.5120777,0,0,1.5120777,-208.44755,3.0915786)">
        <g
           id="g878">
          <g
             id="g884">
            <g
               id="g886">
              <path
                 d="M 634.308,438.836 650,454.108 628.93,460.064 Z"
                 style="fill:url(#linearGradient902);stroke:none"
                 id="path904" />
            </g>
          </g>
        </g>
      </g>
      <g
         id="g908"
         clip-path="url(#clipPath912)">
        <path
           d="m 704.54043,573.64234 h -17.9272 V 696.9674 h 17.9272 z"
           style="fill:#3c3c3b;fill-opacity:1;fill-rule:nonzero;stroke:none;stroke-width:1.51207"
           id="path914" />
        <g
           id="g916"
           transform="matrix(1.5120777,0,0,1.5120777,713.74701,640.33193)">
          <path
             d="m 0,0 c 3.099,0 6.035,0.956 6.035,4.779 v 20.369 c 0,3.109 -2.936,4.301 -6.035,4.301 H -6.2 V 0 Z m 6.035,-15.591 c 0,4.063 -2.936,5.375 -6.035,5.375 h -6.2 v -35.96 h -11.745 v 83.631 h 21.37 c 7.83,0 14.355,-4.66 14.355,-10.514 V 1.136 c 0,0 0.491,-6.573 -4.242,-7.407 4.569,-1.673 4.242,-7.886 4.242,-7.886 V -46.176 H 6.035 Z"
             style="fill:#3c3c3b;fill-opacity:1;fill-rule:nonzero;stroke:none"
             id="path918" />
        </g>
        <g
           id="g920"
           transform="matrix(1.5120777,0,0,1.5120777,57.089021,677.45751)">
          <path
             d="m 0,0 c 0,3.105 -2.937,4.301 -6.199,4.301 h -7.666 v -66.546 h 7.666 c 3.262,0 6.199,1.193 6.199,4.42 z m -2.937,12.902 c 7.994,0 14.355,-4.66 14.519,-10.513 V -60.215 C 11.418,-66.068 5.057,-70.729 -2.937,-70.729 H -25.61 v 83.631 z"
             style="fill:#4a4a49;fill-opacity:1;fill-rule:nonzero;stroke:none"
             id="path922" />
        </g>
        <g
           id="g924"
           transform="matrix(1.5120777,0,0,1.5120777,228.38413,687.57406)">
          <path
             d="m 0,0 c -0.653,-1.074 -2.446,-2.271 -6.198,-2.271 h -9.135 c -1.632,0 -2.773,-0.957 -2.937,-2.031 v -73.117 h -8.32 c -2.774,0 -3.262,1.194 -3.262,1.793 v 73.355 h -16.477 v 5.855 c 0,1.434 1.632,2.628 3.591,2.628 H 3.915 Z"
             style="fill:#4a4a49;fill-opacity:1;fill-rule:nonzero;stroke:none"
             id="path926" />
        </g>
        <g
           id="g928"
           transform="matrix(1.5120777,0,0,1.5120777,409.31452,696.96694)">
          <path
             d="m 0,0 c 3.426,0 4.73,-1.911 4.73,-3.345 v -80.286 h -8.318 c -2.773,0 -3.264,1.194 -3.427,1.793 V 0 Z"
             style="fill:#3c3c3b;fill-opacity:1;fill-rule:nonzero;stroke:none"
             id="path930" />
        </g>
        <g
           id="g932"
           transform="matrix(1.5120777,0,0,1.5120777,376.00072,696.96694)">
          <path
             d="m 0,0 c -1.142,-2.15 -3.261,-5.495 -3.751,-6.212 -0.815,-1.074 -2.447,-2.39 -6.199,-2.39 H -23 c -1.468,0 -2.773,-0.956 -2.773,-2.03 v -15.591 h 20.88 l -3.915,-6.213 c -0.815,-1.074 -2.447,-2.388 -6.198,-2.388 h -7.83 c -1.632,0 -2.937,-0.836 -2.937,-2.03 v -44.269 c 0,-1.434 -1.632,-2.508 -3.425,-2.508 h -8.157 v 81.123 c 0,1.314 1.468,2.508 3.425,2.508 z"
             style="fill:#3c3c3b;fill-opacity:1;fill-rule:nonzero;stroke:none"
             id="path934" />
        </g>
        <g
           id="g936"
           transform="matrix(1.5120777,0,0,1.5120777,669.09052,583.33808)">
          <path
             d="m 0,0 c -1.305,-2.152 -3.264,-5.498 -3.752,-6.212 -0.816,-1.077 -2.609,-2.271 -6.361,-2.271 h -26.101 v 81.242 c 0.161,1.314 1.63,2.388 3.589,2.388 h 30.503 l -3.913,-6.211 c -0.653,-1.075 -2.448,-2.39 -6.2,-2.39 h -9.46 c -1.632,0 -2.774,-0.838 -2.774,-2.03 V 37.574 h 17.617 c -1.305,-2.152 -3.261,-5.616 -3.752,-6.333 -0.814,-1.076 -2.446,-2.269 -6.198,-2.269 h -4.893 c -1.468,0 -2.774,-0.955 -2.774,-2.033 V 0 Z"
             style="fill:#3c3c3b;fill-opacity:1;fill-rule:nonzero;stroke:none"
             id="path938" />
        </g>
        <g
           id="g940"
           transform="matrix(1.5120777,0,0,1.5120777,495.17059,570.51052)">
          <path
             d="m 0,0 c -2.236,0.927 -4.763,2.819 -6.327,4.094 -0.918,0.747 -4.542,5.762 -4.542,5.762 L -20.589,26.28 -20.391,0 h -11.745 v 83.631 h 5.384 c 6.524,0 7.666,-2.271 8.318,-4.66 L -8.041,38.828 -6.362,83.631 H 5.383 V 0 C 5.383,0 3.547,-1.471 0,0"
             style="fill:#3c3c3b;fill-opacity:1;fill-rule:nonzero;stroke:none"
             id="path942" />
        </g>
        <g
           id="g944"
           transform="matrix(1.5120777,0,0,1.5120777,568.39416,677.45751)">
          <path
             d="m 0,0 c 0,3.105 -2.937,4.301 -6.198,4.301 h -7.667 v -66.546 h 7.667 c 3.261,0 6.198,1.193 6.198,4.42 z m -2.937,12.902 c 7.994,0 14.356,-4.66 14.519,-10.513 V -60.215 C 11.419,-66.068 5.057,-70.729 -2.937,-70.729 H -25.61 v 83.631 z"
             style="fill:#3c3c3b;fill-opacity:1;fill-rule:nonzero;stroke:none"
             id="path946" />
        </g>
        <g
           id="g948"
           transform="matrix(1.5120777,0,0,1.5120777,95.144835,536.56997)">
          <path
             d="m 0,0 h -1.092 c 0,2.152 -2.262,3.815 -4.905,3.815 -2.646,0 -4.907,-1.663 -4.907,-3.815 0,-3.789 11.477,-3.789 11.448,-8.723 0,-2.563 -2.861,-4.907 -6.541,-4.907 -3.735,0 -6.543,2.317 -6.543,4.907 h 1.092 c 0,-2.153 2.535,-3.815 5.451,-3.815 2.863,0 5.451,1.689 5.451,3.815 0,3.871 -11.421,3.816 -11.448,8.723 0,2.644 2.588,4.907 5.997,4.907 C -2.59,4.907 0,2.644 0,0"
             style="fill:#6f6f6e;fill-opacity:1;fill-rule:nonzero;stroke:none"
             id="path950" />
        </g>
        <g
           id="g952"
           transform="matrix(1.5120777,0,0,1.5120777,129.16447,524.20617)">
          <path
             d="M 0,0 -4.907,11.175 -9.812,0 Z m -9.921,-1.092 h -0.355 l -1.771,-4.033 -0.136,-0.328 h -1.2 l 0.353,0.764 7.634,17.444 0.136,0.329 h 0.708 L -4.415,12.755 3.216,-4.689 3.571,-5.453 H 2.373 L 2.235,-5.125 0.464,-1.092 H 0.056 Z"
             style="fill:#6f6f6e;fill-opacity:1;fill-rule:nonzero;stroke:none"
             id="path954" />
        </g>
        <g
           id="g956"
           transform="matrix(1.5120777,0,0,1.5120777,151.68687,529.14991)">
          <path
             d="m 0,0 v -7.659 l 7.089,0.028 c 2.344,0 4.332,1.69 4.332,3.816 C 11.421,-1.689 9.433,0 7.089,0 H 5.97 Z m -0.027,1.062 5.997,0.03 c 2.37,0 4.362,1.688 4.362,3.815 0,2.126 -1.992,3.816 -4.362,3.816 H -0.027 Z M 8.942,0.79 c 2.071,-0.682 3.571,-2.506 3.571,-4.605 0,-2.672 -2.428,-4.908 -5.424,-4.908 h -7.66 -0.546 v 0.546 l 0.029,17.418 v 0.544 h 0.544 L 5.97,9.814 c 3.028,0 5.451,-2.237 5.451,-4.907 0,-1.691 -0.981,-3.216 -2.479,-4.117"
             style="fill:#6f6f6e;fill-opacity:1;fill-rule:nonzero;stroke:none"
             id="path958" />
        </g>
        <g
           id="g960"
           transform="matrix(1.5120777,0,0,1.5120777,187.36087,543.16475)">
          <path
             d="M 0,0 V 0.546 H 1.092 V 0 -17.445 -17.991 H 0 v 0.546 z"
             style="fill:#6f6f6e;fill-opacity:1;fill-rule:nonzero;stroke:none"
             id="path962" />
        </g>
        <g
           id="g964"
           transform="matrix(1.5120777,0,0,1.5120777,209.79556,517.6114)">
          <path
             d="m 0,0 h 5.968 c 3.68,0.326 6.379,4.006 6.024,8.177 v 0.052 c 0.355,4.118 -2.344,7.797 -6.024,8.125 H 0 Z M -0.546,-1.092 H -1.09 v 0.546 17.445 0.546 h 0.544 6.569 0.029 c 4.251,-0.382 7.44,-4.499 7.031,-9.268 0.409,-4.77 -2.78,-8.887 -7.031,-9.269 H 6.023 5.997 Z"
             style="fill:#6f6f6e;fill-opacity:1;fill-rule:nonzero;stroke:none"
             id="path966" />
        </g>
        <g
           id="g968"
           transform="matrix(1.5120777,0,0,1.5120777,246.29136,543.16475)">
          <path
             d="M 0,0 V 0.517 H 1.146 L 1.119,-0.027 1.09,-11.994 c 0,-2.726 2.452,-4.905 5.453,-4.905 2.997,0 5.451,2.179 5.451,4.905 V 0 0.517 h 1.145 l -0.026,-0.544 -0.029,-11.967 c 0,-3.272 -2.89,-5.997 -6.541,-5.997 -3.653,0 -6.543,2.725 -6.543,5.997 z"
             style="fill:#6f6f6e;fill-opacity:1;fill-rule:nonzero;stroke:none"
             id="path970" />
        </g>
        <g
           id="g972"
           transform="matrix(1.5120777,0,0,1.5120777,294.1211,530.80079)">
          <path
             d="m 0,0 h 1.773 c 2.373,0 4.362,1.662 4.362,3.788 0,2.153 -1.989,3.843 -4.39,3.843 h -7.058 v -7.66 C -3.542,-0.029 -1.771,0 0,0 m 3.136,-0.928 c 1.392,-1.198 2.508,-2.999 4.062,-8.176 l 0.217,-0.71 H 6.272 l -0.111,0.381 c -1.798,5.888 -2.89,7.116 -4.55,8.341 h -6.924 v -8.177 -0.545 h -1.092 v 0.545 l 0.029,17.418 v 0.544 h 0.543 l 7.578,0.03 c 3.053,0 5.479,-2.238 5.479,-4.935 0,-2.264 -1.715,-4.17 -4.088,-4.716"
             style="fill:#6f6f6e;fill-opacity:1;fill-rule:nonzero;stroke:none"
             id="path974" />
        </g>
        <g
           id="g976"
           transform="matrix(1.5120777,0,0,1.5120777,359.31479,524.20617)">
          <path
             d="M 0,0 -4.905,11.175 -9.81,0 Z m -9.921,-1.092 h -0.355 l -1.771,-4.033 -0.136,-0.328 h -1.2 l 0.355,0.764 7.632,17.444 0.136,0.329 h 0.71 l 0.135,-0.329 7.633,-17.444 0.355,-0.764 h -1.2 L 2.237,-5.125 0.466,-1.092 H 0.055 Z"
             style="fill:#6f6f6e;fill-opacity:1;fill-rule:nonzero;stroke:none"
             id="path978" />
        </g>
        <g
           id="g980"
           transform="matrix(1.5120777,0,0,1.5120777,427.76942,543.99004)">
          <path
             d="M 0,0 H 0.546 V -1.092 H 0 -11.448 v -7.631 h 8.234 0.544 v -1.091 h -0.544 -8.234 v -7.631 H 0 0.546 v -1.092 H 0 -11.991 -12.537 v 0.546 8.177 1.091 8.177 V 0 h 0.546 z"
             style="fill:#6f6f6e;fill-opacity:1;fill-rule:nonzero;stroke:none"
             id="path982" />
        </g>
        <g
           id="g984"
           transform="matrix(1.5120777,0,0,1.5120777,447.78525,516.78595)">
          <path
             d="M 0,0 V -0.546 H -1.093 V 0 17.445 17.991 h 0.818 l 0.164,-0.22 11.53,-16.082 0.028,15.756 v 0.546 h 1.09 V 17.445 L 12.509,0 V -0.546 H 11.691 L 11.527,-0.326 0,15.754 Z"
             style="fill:#6f6f6e;fill-opacity:1;fill-rule:nonzero;stroke:none"
             id="path986" />
        </g>
        <g
           id="g988"
           transform="matrix(1.5120777,0,0,1.5120777,516.24079,517.6114)">
          <path
             d="m 0,0 h 5.968 c 3.679,0.326 6.379,4.006 6.023,8.177 v 0.052 c 0.356,4.118 -2.344,7.797 -6.023,8.125 H 0 Z m -0.547,-1.092 h -0.546 v 0.546 17.445 0.546 h 0.546 6.57 0.027 C 10.303,17.063 13.489,12.946 13.081,8.177 13.489,3.407 10.303,-0.71 6.05,-1.092 H 6.023 5.994 Z"
             style="fill:#6f6f6e;fill-opacity:1;fill-rule:nonzero;stroke:none"
             id="path990" />
        </g>
        <g
           id="g992"
           transform="matrix(1.5120777,0,0,1.5120777,570.04656,524.20617)">
          <path
             d="M 0,0 -4.907,11.175 -9.813,0 Z m -9.921,-1.092 h -0.355 l -1.771,-4.033 -0.136,-0.328 h -1.2 l 0.353,0.764 7.634,17.444 0.136,0.329 h 0.708 l 0.138,-0.329 7.63,-17.444 0.355,-0.764 H 2.373 L 2.235,-5.125 0.464,-1.092 H 0.056 Z"
             style="fill:#6f6f6e;fill-opacity:1;fill-rule:nonzero;stroke:none"
             id="path994" />
        </g>
        <g
           id="g996"
           transform="matrix(1.5120777,0,0,1.5120777,599.16585,543.99004)">
          <path
             d="M 0,0 H 5.971 6.517 V -1.092 H 5.971 0 v -16.899 -0.546 h -1.089 v 0.546 16.899 H -7.113 -7.659 V 0 h 0.546 6.024 z"
             style="fill:#6f6f6e;fill-opacity:1;fill-rule:nonzero;stroke:none"
             id="path998" />
        </g>
        <g
           id="g1000"
           transform="matrix(1.5120777,0,0,1.5120777,624.90368,529.97535)">
          <path
             d="m 0,0 c 0,-4.47 3.163,-8.177 7.087,-8.177 3.926,0 7.089,3.707 7.089,8.177 0,4.47 -3.163,8.177 -7.089,8.177 C 3.163,8.177 0,4.47 0,0 m -1.09,0 c 0,5.178 3.706,9.269 8.177,9.269 4.47,0 8.176,-4.091 8.176,-9.269 0,-5.181 -3.706,-9.269 -8.176,-9.269 -4.471,0 -8.177,4.088 -8.177,9.269"
             style="fill:#6f6f6e;fill-opacity:1;fill-rule:nonzero;stroke:none"
             id="path1002" />
        </g>
        <g
           id="g1004"
           transform="matrix(1.5120777,0,0,1.5120777,682.0082,536.56997)">
          <path
             d="m 0,0 h -1.089 c 0,2.152 -2.265,3.815 -4.907,3.815 -2.644,0 -4.907,-1.663 -4.907,-3.815 0,-3.789 11.476,-3.789 11.45,-8.723 0,-2.563 -2.863,-4.907 -6.543,-4.907 -3.735,0 -6.541,2.317 -6.541,4.907 h 1.09 c 0,-2.153 2.534,-3.815 5.451,-3.815 2.862,0 5.453,1.689 5.453,3.815 0,3.871 -11.422,3.816 -11.448,8.723 0,2.644 2.588,4.907 5.995,4.907 C -2.59,4.907 0,2.644 0,0"
             style="fill:#6f6f6e;fill-opacity:1;fill-rule:nonzero;stroke:none"
             id="path1006" />
        </g>
        <g
           id="g1008"
           transform="matrix(1.5120777,0,0,1.5120777,323.28108,547.06591)">
          <path
             d="M 0,0 -0.162,-0.217 H -1.58 l 0.71,0.872 2.18,2.726 0.164,0.217 H 2.89 L 2.182,2.726 Z"
             style="fill:#6f6f6e;fill-opacity:1;fill-rule:nonzero;stroke:none"
             id="path1010" />
        </g>
        <g
           id="g1012"
           transform="matrix(1.5120777,0,0,1.5120777,323.44574,543.16475)">
          <path
             d="M 0,0 V 0.546 H 1.092 V 0 -17.445 -17.991 H 0 v 0.546 z"
             style="fill:#6f6f6e;fill-opacity:1;fill-rule:nonzero;stroke:none"
             id="path1014" />
        </g>
      </g>
    </g>
  </g>
</svg>
